# xmcd
#
# Track frame offsets:
# 182
# 19582
# 39157
# 64582
# 82357
# 105307
# 132907
# 149332
# 170932
# 193882
#
# Disc length: 2878 seconds
#
#
# Revision: 0
# Processed by: cddbd v1.5.2PL0 Copyright (c) Steve Scherf et al.
# Submitted via: FreeRIP 2.951 
#
DISCID=8b0b3c0a
DTITLE=Kerrie Sweeney - Baby Blue
DYEAR=1900
DGENRE=Blues
TTITLE0=My Baby's Sweeter
TTITLE1=Say No!
TTITLE2=Judgement Day
TTITLE3=Love Ya Baby
TTITLE4=Since I Met You Baby
TTITLE5=Rainin In My Heart
TTITLE6=Eul Gal Blues
TTITLE7=Low Down Dirty Mean
TTITLE8=Blues In My Life
TTITLE9=Don't Be Afraid
EXTD=
EXTT0=
EXTT1=
EXTT2=
EXTT3=
EXTT4=
EXTT5=
EXTT6=
EXTT7=
EXTT8=
EXTT9=
PLAYORDER=
